<svg width="none" height="none" viewBox="0 0 71 65" fill="none" xmlns="http://www.w3.org/2000/svg">
<path d="M0.5 18.7403C0.5 8.66647 8.66647 0.5 18.7403 0.5C23.2421 0.5 27.5849 2.16476 30.9331 5.17398L31.2941 5.49845C32.1968 6.30978 33.0219 7.20361 33.7585 8.16829L34.0756 8.58355L34.7878 9.51626C35.1464 9.98595 35.8536 9.98595 36.2122 9.51626L36.9244 8.58355L37.4556 7.8879C38.0502 7.10923 38.7047 6.37825 39.4133 5.70165L39.6219 5.50241C42.9843 2.2916 47.4547 0.5 52.1038 0.5C62.2107 0.5 70.3533 8.78802 70.1745 18.8933L70.093 23.5L70.0323 24.0116C69.7663 26.2544 69.6333 27.3758 69.404 28.4801C69.1747 29.5843 68.8502 30.666 68.2012 32.8292L68 33.5L66.5 37L65 40C63.7144 42.1632 63.0715 43.2449 62.3288 44.2577C62.278 44.3269 62.227 44.3958 62.1756 44.4645C61.4228 45.4699 60.5751 46.3997 58.8798 48.2594L57.0698 50.2449L54.5206 52.7407C53.0439 54.1865 52.3055 54.9095 51.513 55.5709C50.7204 56.2323 49.8771 56.8294 48.1903 58.0237L45.8279 59.6964L42.5 62L39 64C36.765 64.9579 34.235 64.9579 32 64L28.5 62L25.1721 59.6964L19.6279 55.6339L13.5233 50.2449L12.5586 49.2271C11.0302 47.6145 10.266 46.8082 9.57417 45.9408C8.88229 45.0734 8.26608 44.1491 7.03366 42.3005L6.5 41.5L5.08484 38.9055C4.77118 38.3305 4.61435 38.043 4.46514 37.7523C3.85866 36.5707 3.34361 35.3444 2.92451 34.0841C2.82139 33.774 2.72589 33.4607 2.53488 32.8342L1.5 29L1 26L0.70644 23.9451C0.568986 22.9829 0.5 22.0122 0.5 21.0402V18.7403Z" fill="current"/>
</svg>
